<svg xmlns="http://www.w3.org/2000/svg" viewBox="0 0 64 64">
  <rect width="64" height="64" rx="18" fill="#f7f0e7" />
  <path
    fill="#3a2419"
    d="M18 22h25c4.4 0 8 3.6 8 8s-3.6 8-8 8h-2v2c0 8.3-6.7 15-15 15s-15-6.7-15-15V22h7Zm15 16v2c0 3.9-3.1 7-7 7s-7-3.1-7-7v-2h14Zm10-8c0-1.7-1.3-3-3-3h-2v6h2c1.7 0 3-1.3 3-3Z"
  />
  <path
    fill="#b36a42"
    d="M26 12c0 2.3-1.4 3.1-2.6 3.8c-1 .6-1.8 1-1.8 2.4h-3c0-3.2 2.1-4.4 3.5-5.2c1.1-.6 1.9-1.1 1.9-2.1h2Zm8 0c0 2.3-1.4 3.1-2.6 3.8c-1 .6-1.8 1-1.8 2.4h-3c0-3.2 2.1-4.4 3.5-5.2c1.1-.6 1.9-1.1 1.9-2.1h2Zm8 0c0 2.3-1.4 3.1-2.6 3.8c-1 .6-1.8 1-1.8 2.4h-3c0-3.2 2.1-4.4 3.5-5.2c1.1-.6 1.9-1.1 1.9-2.1h2Z"
  />
</svg>
